<svg xmlns="http://www.w3.org/2000/svg" viewBox="0 0 156.1 40"><defs><style>.cls-1{fill:#a6a6a6;}.cls-2{fill:#fff;}</style></defs><g id="Layer_2" data-name="Layer 2"><g id="livetype"><path class="cls-1" d="M146.57,0H7.52a13.39,13.39,0,0,0-2,.18,6.64,6.64,0,0,0-1.9.63A6.07,6.07,0,0,0,2,2,6.07,6.07,0,0,0,.82,3.62a6.74,6.74,0,0,0-.63,1.9,12.18,12.18,0,0,0-.17,2c0,.31,0,.62,0,.92V31.56c0,.31,0,.61,0,.92a12.18,12.18,0,0,0,.17,2,6.7,6.7,0,0,0,.63,1.91A6,6,0,0,0,2,38a6.07,6.07,0,0,0,1.62,1.18,6.64,6.64,0,0,0,1.9.63,13.39,13.39,0,0,0,2,.18H148.58a13.39,13.39,0,0,0,2-.18,6.91,6.91,0,0,0,1.91-.63,6.55,6.55,0,0,0,2.79-2.79,6.38,6.38,0,0,0,.62-1.91,13.41,13.41,0,0,0,.19-2v-.92c0-.36,0-.73,0-1.1V9.54c0-.37,0-.73,0-1.1V7.52a13.41,13.41,0,0,0-.19-2,6.43,6.43,0,0,0-3.41-4.7,6.91,6.91,0,0,0-1.91-.63,13.39,13.39,0,0,0-2-.18h-2Z"/><path d="M8.44,39.13l-.9,0A11.7,11.7,0,0,1,5.67,39,5.79,5.79,0,0,1,4,38.4a5.5,5.5,0,0,1-1.39-1,5.19,5.19,0,0,1-1-1.4,5.69,5.69,0,0,1-.55-1.66,13,13,0,0,1-.16-1.87c0-.21,0-.91,0-.91V8.44s0-.69,0-.89a13,13,0,0,1,.16-1.87A5.69,5.69,0,0,1,1.6,4a5.38,5.38,0,0,1,1-1.4A5.59,5.59,0,0,1,4,1.6a5.69,5.69,0,0,1,1.66-.55A13,13,0,0,1,7.54.89h141a12.73,12.73,0,0,1,1.86.16,5.75,5.75,0,0,1,1.67.55A5.5,5.5,0,0,1,155,5.67a13.15,13.15,0,0,1,.18,1.88v.89c0,.38,0,.74,0,1.1V30.46c0,.37,0,.72,0,1.08v.93a12.74,12.74,0,0,1-.18,1.85A5.45,5.45,0,0,1,154.5,36a5.33,5.33,0,0,1-1,1.39,5.41,5.41,0,0,1-1.4,1,5.85,5.85,0,0,1-1.67.55,11.7,11.7,0,0,1-1.87.16l-.89,0H8.44Z"/><g id="_Group_3" data-name=" Group 3"><g id="_Group_4" data-name=" Group 4"><path id="_Path_" data-name=" Path " class="cls-2" d="M24.77,20.3a4.93,4.93,0,0,1,2.36-4.15,5.08,5.08,0,0,0-4-2.16c-1.67-.18-3.3,1-4.16,1s-2.19-1-3.61-1a5.31,5.31,0,0,0-4.47,2.73C9,20.11,10.4,25,12.25,27.74c.93,1.33,2,2.81,3.43,2.76s1.9-.89,3.58-.89,2.14.89,3.59.85,2.43-1.33,3.32-2.67a10.85,10.85,0,0,0,1.52-3.09A4.78,4.78,0,0,1,24.77,20.3Z"/><path id="_Path_2" data-name=" Path 2" class="cls-2" d="M22,12.21a4.86,4.86,0,0,0,1.11-3.49,5,5,0,0,0-3.21,1.66,4.63,4.63,0,0,0-1.14,3.36A4.11,4.11,0,0,0,22,12.21Z"/></g></g><path class="cls-2" d="M41.64,15.71h1.78l.18,1.85h.08a5.62,5.62,0,0,1,4-2.16,3.3,3.3,0,0,1,3.49,2.42c1.32-1.43,2.65-2.42,4.19-2.42,2.62,0,3.87,1.74,3.87,5v8.06H57V20.65c0-2.37-.75-3.38-2.37-3.38-1,0-2,.64-3.18,1.95v9.21H49.34V20.65c0-2.37-.75-3.38-2.37-3.38-1,0-2,.64-3.19,1.95v9.21H41.63Z"/><path class="cls-2" d="M62.54,25.13c0-2.77,2.39-4.16,7.81-4.75,0-1.64-.55-3.21-2.63-3.21a7,7,0,0,0-3.79,1.36l-.84-1.47a9.22,9.22,0,0,1,5-1.66c3.1,0,4.41,2.06,4.41,5.22v7.81H70.72l-.18-1.53h-.07a6.78,6.78,0,0,1-4.21,1.84,3.46,3.46,0,0,1-3.72-3.61Zm7.81.19V21.79c-4.26.51-5.7,1.56-5.7,3.19a1.94,1.94,0,0,0,2.22,2,5.28,5.28,0,0,0,3.48-1.66Z"/><path class="cls-2" d="M75.57,22.08c0-4.24,2.87-6.68,6.11-6.68a5.34,5.34,0,0,1,3.73,1.49L84.3,18.31a3.66,3.66,0,0,0-2.52-1.09c-2.32,0-4,2-4,4.89S79.38,27,81.72,27a4.53,4.53,0,0,0,3-1.27l.93,1.44a6.19,6.19,0,0,1-4.11,1.62c-3.38,0-6-2.48-6-6.69Z"/><path class="cls-2" d="M87.64,19.78c0-5.5,3-8.84,7.34-8.84s7.34,3.37,7.34,8.84-3,9-7.34,9S87.64,25.28,87.64,19.78Zm12.43,0c0-4.28-2-6.92-5.09-6.92S89.9,15.5,89.9,19.78s2,7,5.08,7S100.07,24.06,100.07,19.78Z"/><path class="cls-2" d="M104.77,26.19l1.3-1.5a6.69,6.69,0,0,0,4.74,2.13c2.25,0,3.59-1.12,3.59-2.79s-1.25-2.33-2.87-3l-2.46-1.09c-1.6-.68-3.49-1.89-3.49-4.42s2.29-4.56,5.41-4.56a7.11,7.11,0,0,1,5.06,2.13l-1.16,1.4a5.54,5.54,0,0,0-3.9-1.61c-1.93,0-3.2,1-3.2,2.51s1.5,2.27,2.84,2.84l2.45,1.06c2,.85,3.54,2,3.54,4.59,0,2.71-2.25,4.88-5.85,4.88a8.22,8.22,0,0,1-6-2.55Z"/></g></g></svg>